<svg width="640" height="360" viewBox="0 0 640 360" fill="none" xmlns="http://www.w3.org/2000/svg">
  <rect width="640" height="360" rx="24" fill="url(#bg)"/>
  <rect x="92" y="126" width="456" height="170" rx="18" fill="#FFFFFF" fill-opacity="0.9"/>
  <rect x="112" y="146" width="416" height="38" rx="12" fill="#EEF2FF"/>
  <rect x="132" y="204" width="120" height="74" rx="10" fill="#E2E8F0"/>
  <rect x="272" y="204" width="120" height="74" rx="10" fill="#E2E8F0"/>
  <rect x="412" y="204" width="116" height="74" rx="10" fill="#E2E8F0"/>
  <path d="M102 146H538L514 108H126L102 146Z" fill="#6366F1"/>
  <circle cx="170" cy="127" r="8" fill="#A5B4FC"/>
  <circle cx="232" cy="127" r="8" fill="#A5B4FC"/>
  <circle cx="294" cy="127" r="8" fill="#A5B4FC"/>
  <circle cx="356" cy="127" r="8" fill="#A5B4FC"/>
  <circle cx="418" cy="127" r="8" fill="#A5B4FC"/>
  <circle cx="480" cy="127" r="8" fill="#A5B4FC"/>
  <defs>
    <linearGradient id="bg" x1="0" y1="0" x2="640" y2="360" gradientUnits="userSpaceOnUse">
      <stop stop-color="#F8FAFC"/>
      <stop offset="1" stop-color="#E2E8F0"/>
    </linearGradient>
  </defs>
</svg>
